# xmcd
#
# Track frame offsets:
#	150
#	13715
#	32101
#	48058
#	67926
#	85594
#	101278
#	114963
#	129218
#	148639
#
# Disc length: 2185 seconds
#
# Revision: 1
# Processed by: cddbd v1.5.1PL0 Copyright (c) Steve Scherf et al.
# Submitted via: audiograbber 1.81.03
#
DISCID=6d08870a
DTITLE=Alex`Gomez - Always Never
DYEAR=2004
DGENRE=Blues
TTITLE0=Macon Bacon
TTITLE1=New Orleans
TTITLE2=Women Trouble
TTITLE3=Cocaine Girl
TTITLE4=Southern Bible
TTITLE5=Strawberry WIne
TTITLE6=Back To The Grind
TTITLE7=Rolling Stone
TTITLE8=Double Wide
TTITLE9=Sugar Pie
EXTD=
EXTT0=
EXTT1=
EXTT2=
EXTT3=
EXTT4=
EXTT5=
EXTT6=
EXTT7=
EXTT8=
EXTT9=
PLAYORDER=
